<svg width="24" height="24" viewBox="0 0 24 24" xmlns="http://www.w3.org/2000/svg">
    <g fill="#161616" fill-rule="nonzero">
        <path d="M14.067 1.241V5.38a5.379 5.379 0 0 0-5.378 5.378H4.55a9.516 9.516 0 0 1 9.516-9.516zM5.38 0a2.069 2.069 0 1 1 0 4.137 2.069 2.069 0 0 1 0-4.137zM0 14.82l3.583-2.069a5.379 5.379 0 0 0 7.347 1.97L13 18.302A9.516 9.516 0 0 1 0 14.82zm3.27 8.145a2.069 2.069 0 1 1 3.582-2.068 2.069 2.069 0 0 1-3.583 2.068zM18.303 20.445l-3.583-2.069a5.379 5.379 0 0 0-1.969-7.347l2.07-3.583a9.516 9.516 0 0 1 3.482 12.999zm5.42-6.904a2.069 2.069 0 1 1-3.584-2.069 2.069 2.069 0 0 1 3.584 2.069z"/>
    </g>
</svg>
